<?xml version="1.0" standalone="no"?>
<!DOCTYPE svg PUBLIC "-//W3C//DTD SVG 20010904//EN"
 "http://www.w3.org/TR/2001/REC-SVG-20010904/DTD/svg10.dtd">
<svg version="1.0" xmlns="http://www.w3.org/2000/svg"
 width="414.000000pt" height="414.000000pt" viewBox="0 0 414.000000 414.000000"
 preserveAspectRatio="xMidYMid meet">
<metadata>
Created by potrace 1.11, written by Peter Selinger 2001-2013
</metadata>
<g transform="translate(0.000000,414.000000) scale(0.100000,-0.100000)"
fill="#000000" stroke="none">
<path d="M2009 3645 c-3 -2 -29 -6 -59 -9 -30 -3 -66 -8 -80 -11 -14 -4 -36
-8 -50 -11 -13 -3 -48 -13 -77 -23 -34 -12 -53 -14 -53 -7 0 8 -2 8 -8 0 -4
-6 -28 -20 -54 -32 -35 -15 -49 -17 -58 -8 -8 8 -10 7 -5 -5 4 -12 -1 -19 -22
-24 -15 -5 -32 -7 -36 -6 -5 1 -6 -2 -4 -6 3 -5 -6 -13 -19 -20 -18 -8 -22 -8
-17 0 3 7 -6 -1 -22 -16 -17 -16 -36 -26 -46 -24 -13 3 -16 0 -12 -11 5 -11 2
-14 -11 -9 -11 5 -15 3 -10 -5 5 -8 2 -9 -10 -5 -10 4 -15 3 -11 -3 7 -11 -30
-32 -40 -22 -3 4 -5 0 -3 -8 2 -9 -3 -14 -11 -12 -9 2 -11 -3 -7 -14 6 -15 4
-15 -11 -3 -14 12 -16 12 -8 0 6 -11 4 -13 -10 -7 -13 5 -15 3 -8 -6 7 -9 4
-18 -9 -30 -20 -20 -25 -10 -5 12 10 12 9 12 -4 2 -9 -6 -19 -9 -23 -5 -4 4
-4 0 -1 -8 4 -11 -1 -18 -15 -22 -11 -3 -20 -9 -19 -14 4 -20 -2 -27 -12 -13
-9 12 -10 10 -6 -8 4 -19 3 -21 -8 -12 -11 9 -12 7 -8 -12 5 -23 5 -23 -11 -3
-15 19 -16 19 -9 1 4 -13 3 -17 -5 -12 -8 5 -10 1 -5 -10 4 -12 3 -15 -5 -10
-8 4 -10 2 -6 -7 6 -15 -22 -31 -37 -21 -5 3 -8 0 -7 -8 2 -7 -3 -12 -10 -10
-8 1 -11 -2 -7 -8 5 -8 11 -8 19 -1 9 8 13 7 13 -4 0 -7 -3 -14 -6 -13 -23 2
-41 -4 -36 -12 4 -6 12 -7 18 -3 7 4 7 1 -1 -9 -8 -9 -19 -15 -27 -12 -7 3
-16 0 -21 -7 -4 -7 -3 -10 4 -5 19 12 6 -27 -16 -44 -16 -13 -18 -20 -9 -30
10 -10 8 -10 -9 -2 -22 11 -44 0 -44 -22 0 -6 4 -5 9 2 6 10 10 7 13 -12 5
-23 3 -24 -10 -14 -13 11 -15 10 -10 -8 5 -18 2 -22 -18 -19 -20 2 -22 0 -13
-12 9 -11 9 -17 -1 -26 -10 -10 -11 -9 -5 3 5 8 4 11 0 7 -16 -14 -15 -39 1
-33 9 3 12 1 9 -4 -3 -6 -14 -10 -23 -10 -15 -1 -14 -3 3 -16 l20 -16 -20 6
c-11 3 -27 1 -35 -5 -13 -9 -12 -10 3 -5 9 3 17 1 17 -4 0 -6 -8 -10 -17 -10
-12 0 -14 -3 -6 -8 10 -6 11 -30 3 -52 -1 -3 -1 -9 0 -15 1 -5 -2 -6 -6 -2
-10 10 -14 38 -5 32 4 -2 8 2 8 9 0 11 -4 12 -18 3 -13 -8 -15 -13 -6 -19 7
-4 8 -8 3 -8 -4 0 0 -12 9 -27 l18 -28 -22 19 c-11 11 -24 16 -28 13 -3 -4 -2
-7 4 -7 6 0 13 -11 15 -25 4 -21 2 -23 -13 -15 -15 9 -17 6 -13 -16 3 -14 -1
-33 -7 -41 -10 -12 -10 -16 2 -24 13 -8 12 -10 -10 -13 -5 0 -13 -5 -18 -10
-4 -5 -3 -6 3 -3 7 4 14 1 17 -7 4 -10 -1 -13 -18 -11 -14 1 -22 -2 -19 -7 3
-5 12 -7 20 -4 8 3 14 1 14 -5 0 -6 5 -7 12 -3 7 4 8 3 4 -4 -4 -7 -17 -12
-29 -13 -16 0 -18 -2 -7 -7 8 -4 16 -18 17 -32 1 -14 0 -19 -3 -12 -11 24 -19
12 -19 -28 0 -25 6 -44 15 -50 12 -8 12 -10 1 -10 -9 0 -10 -4 -4 -12 12 -15
13 -49 2 -42 -15 9 -16 -22 0 -40 11 -13 11 -17 2 -11 -9 5 -12 3 -9 -6 3 -8
11 -13 18 -11 10 2 11 0 2 -11 -7 -8 -9 -17 -5 -20 3 -4 2 -7 -3 -7 -6 0 -14
4 -20 10 -6 6 -10 3 -11 -10 -1 -11 3 -20 8 -20 6 0 7 4 4 10 -4 6 1 7 11 3
11 -4 13 -8 6 -11 -17 -5 -15 -27 3 -42 11 -9 12 -17 6 -23 -7 -7 -7 -16 0
-29 12 -22 6 -23 -15 -2 -9 8 -16 11 -16 5 0 -14 30 -42 40 -36 5 3 11 1 15
-4 3 -6 -3 -8 -14 -6 -13 2 -18 -2 -16 -13 1 -9 -3 -23 -9 -31 -9 -12 -8 -13
3 -6 11 6 13 4 8 -9 -4 -10 -3 -15 3 -11 14 9 12 -8 -2 -24 -9 -10 -9 -12 -1
-7 14 8 27 -10 13 -19 -6 -4 -8 -11 -4 -16 3 -5 10 -7 15 -4 5 4 9 2 9 -4 0
-5 -6 -12 -12 -14 -10 -4 -10 -6 -1 -6 7 -1 17 -11 24 -23 9 -17 9 -20 -3 -15
-8 3 -15 -1 -15 -8 0 -7 6 -11 14 -8 9 4 11 0 7 -13 -4 -11 -4 -16 0 -12 4 3
9 14 10 24 2 10 9 20 17 22 12 3 12 2 0 -6 -11 -8 -10 -12 5 -22 16 -10 16
-11 2 -6 -10 3 -18 1 -18 -4 0 -6 5 -10 11 -10 7 0 9 -10 7 -25 -4 -20 -2 -23
7 -15 10 8 15 7 21 -1 4 -7 3 -9 -3 -6 -6 4 -14 0 -17 -9 -3 -8 -2 -12 4 -9 6
3 10 1 10 -4 0 -6 7 -11 15 -11 12 0 14 -8 10 -32 -5 -25 -3 -29 7 -20 11 8
14 7 14 -8 0 -10 -4 -16 -9 -13 -5 3 -4 -4 3 -16 6 -12 21 -26 33 -30 24 -9
35 -55 17 -66 -13 -8 -3 -25 13 -25 8 0 8 3 -2 9 -11 7 -11 10 0 17 20 12 40
14 33 3 -3 -5 1 -9 8 -9 8 0 6 -5 -4 -11 -10 -5 -18 -15 -18 -21 0 -9 3 -9 12
0 16 16 28 15 28 -3 0 -8 5 -15 10 -15 6 0 10 -4 10 -10 0 -18 -18 -11 -25 10
-5 16 -9 17 -20 7 -7 -6 -11 -16 -8 -21 3 -4 9 -3 13 4 5 9 9 8 13 -3 3 -8 0
-21 -6 -28 -10 -11 -9 -11 5 0 9 7 21 10 27 7 5 -3 11 -2 13 3 1 5 9 3 16 -5
7 -8 8 -14 2 -14 -30 0 11 -53 51 -65 11 -4 19 -10 19 -15 0 -5 -8 -7 -17 -4
-15 5 -16 4 -3 -5 9 -6 18 -7 24 -1 6 6 14 10 20 10 5 0 -2 -10 -15 -22 -16
-14 -18 -19 -7 -15 11 4 19 0 23 -14 4 -10 11 -19 16 -19 5 0 3 10 -6 23 -13
20 -13 24 0 24 8 0 12 -4 9 -9 -7 -11 22 -39 30 -30 4 3 4 -2 0 -13 -7 -17 -6
-18 8 -7 13 10 17 10 22 -3 3 -9 11 -13 17 -9 8 4 9 3 5 -5 -6 -9 -11 -9 -22
0 -8 6 -14 10 -15 8 -6 -31 -6 -40 2 -45 5 -3 8 0 7 6 -2 7 5 14 15 15 12 2
17 -1 13 -10 -3 -9 0 -12 8 -9 8 3 12 15 10 27 -4 21 -4 21 4 2 5 -11 7 -27 4
-35 -5 -13 -3 -13 11 -1 14 11 17 11 17 0 0 -11 3 -11 11 1 9 13 10 13 6 0 -4
-17 -90 -18 -417 -7 -102 4 -262 10 -356 13 -122 4 -174 3 -178 -5 -4 -6 -12
-9 -17 -6 -5 3 -6 -1 -3 -9 4 -10 0 -14 -13 -12 -10 2 -12 1 -5 -1 6 -3 12 -9
12 -14 0 -6 -5 -7 -12 -3 -7 4 -8 3 -4 -5 6 -9 11 -9 24 1 10 8 13 9 9 1 -8
-13 3 -22 33 -28 25 -5 59 -24 43 -25 -7 0 -10 -7 -6 -16 5 -13 7 -13 14 -2 5
8 9 9 9 2 0 -10 33 -25 62 -28 3 -1 10 -4 14 -8 7 -8 -31 -3 -44 6 -5 3 -9 0
-9 -7 0 -15 59 -17 69 -3 5 8 8 7 8 -1 0 -19 54 -43 84 -37 15 2 26 0 26 -6 0
-6 -4 -9 -9 -5 -15 9 -24 -16 -11 -28 10 -9 11 -9 5 2 -6 11 -4 13 8 8 10 -4
24 -10 34 -14 12 -5 14 -3 8 8 -7 12 -6 12 7 1 10 -8 14 -20 11 -29 -4 -9 -2
-14 3 -10 6 3 16 1 24 -4 12 -7 10 -8 -7 -6 -11 2 -29 9 -40 17 -15 12 -16 12
-6 0 7 -8 13 -21 13 -29 -1 -13 -4 -12 -16 4 -15 19 -15 19 -12 1 2 -14 -7
-22 -34 -32 -20 -7 -53 -20 -72 -29 -19 -9 -41 -13 -48 -9 -7 4 -10 3 -5 -1
10 -11 -70 -48 -85 -39 -7 4 -8 3 -4 -4 4 -7 2 -13 -3 -13 -31 -4 -78 -26 -87
-41 -5 -9 -2 -8 11 2 17 13 18 13 10 0 -15 -24 -14 -38 2 -44 8 -3 11 -10 8
-16 -3 -5 -1 -10 5 -10 7 0 10 6 7 14 -3 8 1 20 9 26 10 9 14 9 14 1 0 -6 -5
-11 -11 -11 -5 0 -7 -5 -4 -10 5 -8 11 -8 20 0 10 8 15 8 21 -1 5 -8 3 -9 -7
-4 -12 8 -12 6 0 -8 14 -18 23 -22 19 -9 -2 4 0 7 3 7 4 0 16 8 28 19 19 17
21 17 27 2 6 -15 7 -15 19 1 8 10 17 15 21 11 4 -4 14 -2 23 5 14 10 14 10 3
-5 -8 -9 -20 -14 -28 -11 -9 3 -14 -1 -14 -13 0 -16 2 -17 10 -4 9 14 14 7 11
-13 -1 -5 3 -6 9 -2 6 3 7 11 4 17 -4 6 1 8 15 3 13 -4 21 -2 21 5 0 6 -5 8
-12 4 -7 -5 -8 -3 -3 6 6 10 13 7 27 -11 11 -13 17 -18 13 -12 -3 7 -1 13 5
13 6 0 9 4 5 9 -3 5 0 13 6 17 8 4 9 3 5 -4 -4 -7 -1 -12 8 -12 9 0 16 -5 16
-11 0 -5 5 -7 10 -4 6 4 7 11 4 17 -4 7 -2 8 5 4 6 -4 9 -11 6 -16 -3 -4 2
-13 10 -20 12 -10 13 -7 9 17 -4 27 -3 27 11 9 8 -11 15 -15 15 -9 0 6 7 14
16 17 14 5 15 4 5 -8 -10 -11 -6 -13 19 -11 17 1 34 6 38 10 4 5 2 5 -4 2 -6
-3 -11 0 -11 8 0 10 4 12 12 5 7 -5 16 -6 20 -2 5 4 5 1 0 -7 -6 -10 -2 -11
15 -6 13 4 20 3 17 -2 -4 -5 0 -10 9 -10 9 0 13 7 9 21 -3 12 -2 15 1 8 5 -10
9 -10 22 0 15 12 16 11 3 -4 -7 -10 -10 -18 -5 -19 5 0 17 -2 27 -4 9 -2 15 1
11 6 -3 5 -10 6 -16 3 -6 -4 -8 -3 -5 3 11 18 65 3 72 -21 14 -48 16 -78 5
-91 -8 -9 -8 -15 0 -20 6 -3 7 -11 4 -17 -4 -6 -2 -8 4 -4 6 3 13 3 16 -2 2
-4 21 -6 40 -4 24 3 33 8 29 16 -4 6 1 5 10 -3 14 -11 17 -11 17 0 0 11 2 11
10 -1 9 -13 11 -13 20 0 9 13 10 12 8 -4 -2 -10 3 -21 10 -23 8 -3 10 1 6 11
-5 12 -2 15 10 10 10 -4 16 -1 16 7 0 7 3 9 6 6 4 -4 1 -14 -7 -24 -12 -15
-12 -16 4 -10 10 4 21 7 23 7 3 0 2 6 -2 13 -6 9 -5 9 8 0 8 -7 19 -9 23 -5 5
4 4 1 0 -7 -6 -11 -4 -13 11 -6 10 4 28 9 40 10 11 1 25 5 32 9 7 4 12 3 12
-2 0 -13 -27 -23 -44 -16 -18 7 -30 -12 -15 -22 8 -4 9 -3 5 4 -9 15 -1 15 26
1 15 -8 19 -8 14 0 -5 7 11 11 48 11 38 0 56 4 56 13 0 9 2 9 9 -1 4 -8 14
-13 22 -12 35 5 42 1 28 -17 -12 -16 -12 -17 2 -6 9 7 20 9 24 5 5 -4 5 -2 2
4 -4 7 1 15 11 19 19 7 28 4 24 -7 -4 -13 33 -9 47 5 10 10 12 9 9 -2 -2 -10
7 -16 25 -17 15 -2 25 1 22 7 -4 5 -1 9 4 9 6 0 11 -4 11 -10 0 -5 5 -10 11
-10 5 0 7 5 4 10 -3 6 -1 10 4 10 6 0 11 -4 11 -10 0 -5 5 -10 11 -10 5 0 7 5
3 11 -3 6 7 4 22 -4 16 -8 35 -12 43 -9 10 3 11 0 5 -9 -6 -11 -5 -12 7 -2 8
6 31 10 52 9 29 -2 37 0 33 11 -4 9 -1 11 6 7 8 -5 9 -2 5 10 -4 11 -3 15 4
11 6 -4 8 -13 5 -21 -3 -8 -1 -14 5 -14 6 0 7 -6 4 -12 -4 -7 0 -4 9 6 8 10
13 23 9 29 -3 6 -1 7 6 3 7 -4 9 -17 6 -29 -4 -12 -3 -17 2 -11 13 17 42 24
49 12 4 -6 3 -8 -4 -4 -6 3 -13 2 -16 -3 -7 -10 13 -9 31 2 6 4 14 1 16 -5 4
-10 6 -10 6 0 1 7 14 12 32 12 16 0 28 -4 25 -8 -3 -5 1 -9 9 -9 13 0 13 2 0
17 -13 14 -11 16 15 15 16 0 39 -9 51 -20 12 -11 19 -14 15 -8 -4 8 -1 13 9
13 10 0 13 -5 9 -12 -6 -9 -3 -9 9 0 9 8 21 11 27 7 5 -3 10 -1 10 4 0 6 5 11
11 11 5 0 7 -5 3 -12 -4 -6 -3 -8 4 -4 5 3 13 0 15 -6 4 -10 6 -10 6 0 1 6 6
12 12 12 5 0 7 -6 3 -13 -6 -9 -5 -9 7 0 8 7 24 12 34 11 11 -1 30 2 42 6 19
6 22 4 16 -10 -4 -12 -3 -15 5 -10 7 4 12 13 12 21 0 8 5 17 12 21 7 4 8 3 4
-4 -4 -7 -5 -16 -1 -22 8 -13 36 0 28 14 -3 6 -3 8 2 4 4 -4 15 -2 23 5 13 10
14 9 3 -11 -7 -13 -10 -26 -8 -29 3 -3 12 7 20 22 12 23 15 25 20 11 5 -11 3
-15 -5 -10 -7 4 -8 3 -4 -4 7 -11 37 -5 33 6 -1 4 3 8 8 9 6 2 10 -4 10 -11 0
-8 4 -18 8 -23 5 -4 8 -3 7 2 -5 22 0 45 10 45 5 0 7 -6 4 -13 -3 -10 7 -13
40 -13 24 1 48 5 53 10 4 5 3 7 -3 3 -6 -3 -11 0 -11 8 0 13 3 12 18 -1 10 -9
16 -21 12 -27 -3 -6 -1 -7 6 -3 6 4 9 12 6 17 -6 8 11 13 43 12 8 -1 11 5 8
14 -4 8 -1 11 5 8 6 -4 8 -13 5 -21 -3 -7 -1 -16 5 -19 5 -4 9 -3 8 2 -3 20 3
23 24 12 21 -12 21 -11 7 7 -15 18 -14 18 13 1 32 -21 37 -7 5 17 l-23 17 25
-13 c14 -7 29 -11 34 -10 5 2 6 -4 3 -12 -4 -9 -1 -18 5 -22 7 -5 8 -2 3 6 -6
10 -4 12 8 7 19 -7 32 8 16 19 -8 5 -9 3 -4 -6 5 -9 4 -11 -4 -6 -6 4 -9 12
-6 17 9 13 12 12 36 -13 12 -13 19 -17 15 -10 -6 9 1 11 26 8 18 -3 27 -3 21
0 -7 3 -13 13 -12 22 0 11 2 12 6 5 2 -7 11 -13 19 -13 9 0 12 -5 8 -11 -5 -8
-1 -8 13 0 15 7 23 7 32 -2 10 -9 12 -9 9 3 -2 11 6 15 29 14 29 -1 31 1 21
20 -11 20 -10 20 7 6 17 -14 18 -13 12 3 -3 9 -2 18 3 18 6 1 16 2 23 3 7 1
12 17 12 46 0 30 4 44 12 43 7 -2 10 4 7 12 -4 8 -10 12 -15 9 -5 -3 -9 -3 -9
0 0 3 10 10 21 17 16 8 20 8 14 -1 -4 -6 1 -17 11 -25 19 -14 44 -10 44 7 0 6
-6 6 -14 -1 -19 -16 -31 3 -16 26 11 17 11 17 6 1 -3 -10 -1 -18 4 -18 6 0 10
6 10 13 0 9 3 8 9 -2 5 -7 14 -10 20 -7 6 4 8 12 5 18 -4 7 -2 8 5 4 6 -4 9
-12 6 -17 -9 -13 9 -11 24 4 10 10 11 9 6 -4 -7 -18 20 -33 38 -22 7 4 19 8
27 10 8 1 20 9 26 18 7 9 15 12 18 6 3 -5 0 -11 -6 -14 -10 -3 -10 -7 -1 -17
9 -9 14 -8 23 9 6 12 15 19 21 16 5 -4 9 -1 9 4 0 6 5 11 11 11 5 0 8 -4 4 -9
-3 -6 5 -15 17 -22 22 -12 22 -11 8 6 -14 17 -14 18 8 6 12 -7 20 -16 17 -21
-3 -5 -1 -11 4 -15 6 -3 8 3 6 15 -4 23 14 27 34 8 11 -10 13 -10 7 0 -6 10
10 15 40 11 4 0 11 5 15 13 5 8 9 9 9 2 0 -7 9 -14 20 -17 13 -3 20 0 20 8 0
8 5 17 10 20 6 4 9 1 8 -5 -2 -7 8 -16 21 -21 19 -8 22 -7 13 4 -8 10 -6 13 9
14 11 1 17 -2 14 -6 -2 -5 4 -11 15 -14 16 -4 18 -2 10 13 -13 24 -13 30 1 30
5 0 8 -4 4 -9 -3 -5 -1 -13 5 -16 6 -4 10 -3 9 2 -4 20 3 29 22 30 22 2 36 10
28 16 -2 2 -92 41 -199 87 -107 45 -199 86 -203 90 -5 4 -4 11 2 14 6 4 11 2
11 -3 0 -6 5 -11 11 -11 5 0 7 5 3 12 -5 8 -2 9 10 5 13 -5 17 -3 13 7 -7 17
6 22 49 21 19 -1 31 4 31 12 0 9 -4 10 -13 2 -8 -7 -14 -6 -20 2 -4 8 -3 9 5
5 6 -4 14 0 17 9 6 14 8 14 21 -2 14 -17 14 -17 9 1 -6 17 -5 17 11 5 15 -12
16 -12 11 3 -4 10 -1 19 8 22 9 3 12 1 9 -4 -9 -15 9 -12 31 5 19 15 19 15 -1
9 -16 -5 -17 -4 -6 4 10 7 21 7 35 0 19 -10 20 -10 7 6 -12 14 -12 16 4 10 13
-5 16 -4 11 4 -5 8 -1 10 10 5 13 -5 15 -3 9 8 -7 12 -6 12 7 1 12 -10 18 -10
28 2 6 9 9 19 6 24 -3 5 10 16 29 25 62 30 42 37 -87 32 -285 -10 -714 -25
-836 -28 -46 -1 -86 2 -90 7 -3 5 0 6 6 2 7 -4 12 -2 12 5 0 7 3 9 7 6 3 -4
12 2 20 13 8 11 20 20 27 20 7 0 23 11 36 25 13 14 30 23 37 21 8 -3 10 1 6
12 -6 15 -5 16 12 2 13 -10 16 -11 11 -2 -10 17 23 55 41 47 8 -2 12 -1 9 4
-3 5 23 39 59 77 36 37 65 71 65 76 0 5 5 6 10 3 6 -4 10 -3 9 2 -4 17 14 43
25 36 6 -3 8 -3 4 1 -4 5 10 33 30 65 69 105 107 182 146 293 88 257 93 530
14 803 -78 269 -271 532 -511 697 -74 50 -276 156 -312 162 -5 1 -37 10 -70
20 -60 18 -70 21 -135 32 -19 4 -44 9 -55 11 -26 6 -311 13 -316 8z m121 -403
c0 -5 -10 -14 -22 -20 -21 -9 -21 -10 7 -7 17 2 35 4 42 4 7 1 10 8 7 19 -4
10 -3 13 3 6 4 -6 27 -10 50 -10 22 1 39 -2 36 -6 -7 -12 11 -10 23 2 7 7 11
6 11 -4 0 -8 -4 -13 -9 -10 -4 3 -8 1 -8 -5 0 -16 14 -20 27 -6 6 7 10 15 7
17 -2 3 2 5 9 5 8 0 14 -6 14 -13 0 -7 -4 -11 -9 -8 -4 3 -8 0 -8 -6 0 -7 7
-10 15 -6 8 3 19 -3 25 -12 10 -15 11 -15 6 0 -2 9 2 19 10 22 9 3 12 1 9 -4
-3 -6 -1 -10 5 -10 6 0 8 -6 4 -12 -4 -7 -4 -10 1 -6 4 4 16 3 26 -3 14 -7 19
-6 19 4 0 8 7 14 15 14 8 0 11 -5 7 -11 -10 -17 -11 -37 -1 -30 5 3 7 10 4 15
-4 5 -2 9 3 9 5 0 12 -9 15 -20 3 -13 10 -18 21 -14 13 5 15 2 9 -12 -6 -16
-5 -17 9 -4 15 13 15 16 2 26 -13 10 -13 12 1 17 8 4 14 1 12 -6 -1 -7 5 -11
13 -9 12 3 13 1 3 -9 -22 -22 -14 -33 9 -13 13 12 18 13 13 4 -13 -21 -15 -40
-4 -40 5 0 9 6 9 14 0 17 27 29 36 15 3 -6 1 -16 -5 -22 -9 -9 -11 -7 -5 8 6
16 5 18 -7 8 -21 -20 5 -41 27 -22 16 13 16 12 5 -10 -8 -15 -9 -21 -2 -17 10
6 15 -6 12 -26 -2 -13 6 -9 20 9 12 15 12 16 -1 8 -8 -4 -12 -4 -7 0 12 13 36
15 44 3 3 -7 1 -8 -5 -4 -7 4 -12 1 -12 -9 0 -11 5 -15 15 -12 8 4 17 2 21 -4
3 -6 12 -8 20 -5 22 8 17 -2 -7 -15 -17 -9 -20 -8 -14 2 6 8 4 10 -5 4 -9 -5
-11 -4 -6 3 11 18 0 14 -15 -5 -8 -10 -9 -14 -2 -10 6 4 14 3 18 -2 3 -6 12
-8 19 -5 8 3 17 0 22 -7 4 -7 3 -10 -4 -5 -6 3 -13 2 -16 -3 -4 -5 2 -8 11 -6
10 1 17 10 16 20 0 9 3 13 7 9 5 -5 6 -21 3 -35 -5 -28 -46 -54 -65 -43 -6 4
-8 2 -4 -4 3 -6 -4 -14 -16 -18 -13 -3 -35 -15 -50 -26 -16 -11 -33 -16 -39
-12 -7 4 -9 3 -6 -3 4 -6 -10 -18 -31 -27 -20 -10 -59 -30 -87 -45 -27 -16
-53 -27 -57 -24 -5 2 -8 -1 -8 -7 0 -10 -61 -42 -76 -39 -4 0 -10 -3 -13 -8
-3 -5 -41 -29 -83 -52 -88 -48 -84 -48 -196 13 -150 83 -198 109 -292 159 -52
27 -99 53 -105 57 -26 19 -127 71 -131 67 -2 -2 -5 -16 -6 -31 -2 -23 -4 -25
-14 -11 -8 10 -14 12 -19 6 -3 -6 -1 -11 4 -11 6 0 11 -7 11 -15 0 -8 -5 -15
-11 -15 -5 0 -7 -5 -4 -10 4 -6 1 -18 -7 -27 -7 -9 -8 -14 -2 -10 7 4 12 -2
12 -18 0 -16 -5 -22 -12 -18 -6 4 -5 0 2 -9 8 -10 9 -18 3 -22 -6 -4 -7 -14
-4 -23 5 -12 3 -14 -8 -8 -8 5 -6 0 4 -12 13 -14 15 -23 7 -28 -8 -5 -8 -11 1
-21 11 -13 6 -18 -14 -15 -5 1 -6 -3 -2 -8 3 -6 13 -7 23 -4 15 6 15 5 3 -10
-7 -9 -10 -17 -5 -17 4 0 3 -5 -3 -11 -6 -6 -9 -18 -6 -25 3 -8 -1 -14 -8 -14
-7 0 -5 -6 6 -14 11 -8 23 -12 27 -10 5 3 8 0 8 -6 0 -7 -6 -10 -13 -7 -7 3
-19 -5 -26 -16 -11 -18 -11 -20 0 -9 15 14 33 16 25 3 -4 -5 -3 -11 1 -14 5
-2 3 -3 -3 -1 -6 1 -16 -8 -23 -19 -11 -18 -11 -20 0 -9 16 15 33 16 23 0 -5
-8 -2 -9 10 -5 11 4 15 3 11 -4 -4 -6 -13 -8 -20 -5 -7 2 -15 -1 -18 -7 -5
-12 2 -14 57 -19 14 -1 23 -5 20 -9 -4 -8 -37 -4 -52 5 -5 3 -9 -1 -9 -9 0 -8
4 -12 9 -9 5 4 16 -2 24 -12 11 -15 13 -15 8 -3 -4 12 1 16 18 15 13 -1 29 5
36 14 11 13 12 13 10 -4 -2 -10 3 -21 11 -24 10 -3 11 2 6 19 -3 13 -3 19 2
13 14 -19 38 -21 51 -5 12 14 13 14 8 -1 -3 -10 0 -20 6 -24 6 -4 9 -3 5 2 -3
5 6 15 19 21 20 9 26 9 30 -1 5 -13 48 -16 60 -3 4 3 -3 5 -14 2 -12 -2 -24
-1 -26 3 -3 4 11 8 29 8 19 0 31 -4 27 -10 -3 -6 9 1 27 13 18 13 35 30 38 37
3 8 15 14 27 14 15 0 17 3 8 9 -11 7 -11 9 2 14 9 4 24 4 34 1 13 -5 14 -4 3
4 -11 8 -9 12 9 22 18 10 21 10 15 -2 -3 -7 1 -4 9 6 9 11 16 15 16 10 0 -6 7
-11 15 -11 11 0 12 4 4 13 -7 9 -6 12 8 9 10 -1 17 -8 15 -15 -1 -6 2 -9 8 -5
6 3 7 11 4 17 -5 7 0 9 15 5 16 -4 20 -2 12 6 -12 15 38 20 56 6 7 -7 14 -6
19 2 5 8 3 9 -6 4 -9 -5 -11 -4 -6 4 11 16 25 4 21 -18 -3 -15 1 -18 18 -14
12 3 27 12 33 19 9 12 14 11 28 -4 13 -16 14 -19 1 -19 -8 0 -12 4 -9 9 3 4 0
8 -6 8 -7 0 -10 -6 -7 -12 2 -7 8 -13 13 -13 5 0 14 -4 21 -8 6 -4 19 -4 29 0
12 4 15 3 10 -5 -5 -8 -1 -10 10 -5 12 4 15 3 10 -5 -5 -8 -1 -10 10 -5 16 6
16 7 0 18 -9 7 -16 16 -16 20 0 5 11 -2 25 -15 13 -12 22 -27 19 -31 -2 -4 6
-13 18 -20 22 -12 22 -11 8 7 -14 18 -14 18 3 5 10 -8 15 -21 12 -29 -5 -12
-3 -13 10 -2 13 11 16 11 13 -1 -2 -8 -6 -16 -10 -19 -4 -3 6 -14 24 -24 22
-13 29 -15 24 -5 -4 8 0 5 10 -6 16 -20 16 -20 12 1 -3 13 0 21 8 21 7 0 11
-4 8 -9 -3 -4 0 -8 6 -8 6 0 8 -4 5 -10 -10 -16 1 -11 16 7 12 14 12 16 0 8
-10 -5 -12 -4 -7 4 4 6 12 9 17 5 5 -3 7 -9 4 -14 -3 -4 2 -10 10 -14 8 -3 17
0 21 6 4 6 3 8 -3 5 -5 -3 -10 0 -10 7 0 15 38 16 49 1 5 -6 8 -4 8 5 0 13 1
13 11 0 9 -12 12 -13 16 -1 5 11 7 11 14 0 11 -18 41 -18 57 1 11 13 12 13 10
-4 -4 -24 17 -33 26 -11 4 11 2 14 -7 9 -7 -4 -7 -1 2 7 10 11 15 11 18 2 3
-7 9 -13 14 -13 6 0 8 4 4 9 -3 5 5 11 16 13 22 3 22 4 23 244 0 226 1 240 18
239 17 -1 61 -35 46 -35 -4 0 -13 7 -21 15 -13 12 -15 12 -20 -4 -3 -12 1 -18
12 -17 9 0 15 -5 13 -13 -3 -12 0 -12 12 -2 16 14 36 7 35 -12 0 -9 -2 -9 -6
1 -7 18 -23 14 -20 -5 4 -28 18 -45 31 -40 7 3 19 1 27 -5 11 -8 10 -9 -3 -4
-20 6 -25 -18 -6 -30 6 -4 8 -3 5 4 -5 6 1 8 14 5 20 -6 20 -7 -7 -18 -24 -9
-26 -12 -11 -18 11 -4 15 -12 11 -18 -5 -8 -3 -9 6 -4 10 6 12 4 7 -8 -4 -11
-1 -17 9 -17 8 0 13 4 10 9 -3 5 0 11 7 14 9 3 13 -2 12 -16 -3 -30 13 -59 28
-51 9 5 9 4 0 -6 -8 -9 -9 -19 -3 -31 7 -12 6 -20 -2 -25 -7 -5 -8 -3 -3 6 5
9 4 11 -3 6 -17 -10 -15 -26 3 -26 7 0 19 8 24 18 6 9 11 12 11 5 0 -14 -27
-43 -41 -43 -6 0 -7 -5 -3 -11 3 -6 9 -7 13 -3 3 5 15 10 26 12 18 3 18 2 -3
-13 -17 -13 -20 -20 -12 -30 8 -9 8 -15 0 -20 -7 -4 -6 -13 2 -28 7 -12 11
-26 10 -30 -1 -5 8 -6 20 -3 13 3 17 3 9 0 -11 -5 -11 -8 0 -16 11 -8 10 -9
-3 -5 -9 3 -18 1 -21 -6 -5 -15 15 -69 28 -79 6 -5 5 -8 -2 -8 -7 0 -13 -7
-13 -16 0 -8 4 -13 8 -10 5 3 9 -1 9 -8 0 -7 -6 -13 -13 -13 -7 0 -11 4 -8 8
2 4 0 10 -5 13 -5 4 -8 -2 -6 -11 2 -10 4 -22 4 -26 1 -5 7 -5 14 -1 6 4 9 4
5 -1 -4 -4 -2 -15 5 -23 10 -13 9 -14 -2 -7 -11 6 -13 4 -8 -9 4 -9 3 -15 -2
-12 -14 9 -22 -36 -9 -51 8 -11 7 -12 -6 -7 -12 5 -15 2 -10 -10 3 -9 10 -13
15 -10 5 3 6 -2 3 -10 -7 -18 -25 -22 -21 -5 1 6 -5 14 -13 16 -13 4 -13 3 0
-6 8 -6 11 -11 7 -11 -5 0 -5 -6 -1 -12 5 -7 9 -21 9 -30 1 -13 -2 -15 -11 -7
-8 7 -14 6 -20 -2 -4 -7 -3 -9 3 -6 6 4 13 -2 16 -13 6 -22 -8 -28 -16 -7 -3
7 -6 4 -6 -6 -1 -10 -5 -15 -11 -12 -16 10 -11 -1 7 -16 14 -12 16 -12 8 0 -5
10 -4 12 4 7 18 -11 1 -28 -23 -22 -20 5 -20 5 -2 -9 17 -13 17 -15 4 -15 -9
0 -20 -5 -24 -12 -5 -8 -2 -9 11 -4 14 5 16 4 7 -7 -7 -8 -9 -16 -6 -20 7 -7
-31 -28 -40 -22 -3 3 -2 -1 4 -7 16 -20 11 -32 -7 -17 -9 8 -14 9 -10 3 4 -7
0 -17 -8 -24 -12 -10 -13 -16 -3 -28 11 -13 10 -15 -4 -9 -13 4 -15 2 -11 -10
4 -10 2 -14 -4 -10 -6 4 -13 -3 -16 -14 -3 -12 -10 -18 -17 -14 -6 3 -10 3 -9
-2 3 -19 -2 -34 -10 -28 -5 3 -13 -4 -16 -15 -5 -16 -10 -18 -20 -10 -10 8
-15 8 -21 -1 -4 -8 -3 -9 4 -5 7 4 12 0 12 -10 0 -10 -3 -15 -6 -11 -3 3 -20
-10 -37 -29 -18 -19 -37 -34 -42 -34 -6 0 -18 -9 -28 -20 -10 -12 -22 -18 -27
-15 -6 3 -10 2 -10 -3 0 -14 -80 -54 -96 -48 -7 3 -11 0 -9 -7 5 -11 -93 -51
-152 -63 -28 -5 -67 -12 -113 -21 -41 -7 -177 -7 -237 0 -67 9 -174 38 -230
63 -29 13 -53 21 -53 18 0 -3 -6 0 -12 6 -15 12 -149 100 -153 100 -4 0 -59
53 -72 70 -10 14 -7 16 22 18 19 2 35 -2 35 -8 0 -5 5 -10 11 -10 5 0 7 5 4
10 -3 6 3 10 15 10 12 0 18 -4 15 -10 -3 -5 -1 -10 4 -10 6 0 11 5 11 10 0 6
7 10 16 10 11 0 14 -6 10 -22 -3 -13 -3 -17 0 -10 5 10 9 10 22 0 15 -12 16
-11 4 4 -17 21 -6 42 17 33 63 -25 135 1 124 45 -5 20 -43 49 -43 33 0 -4 -5
-2 -12 5 -7 7 -20 12 -31 12 -10 0 -15 5 -12 10 8 13 45 13 45 -1 0 -6 14 -9
32 -7 18 2 33 -1 34 -7 2 -29 17 -45 36 -39 17 5 19 2 16 -23 -1 -15 -7 -31
-12 -34 -4 -4 -3 -10 3 -13 6 -4 11 -2 11 3 0 6 9 11 20 11 16 0 19 8 22 58 2
36 7 57 16 58 6 1 19 2 27 3 14 1 14 3 0 24 -14 22 -14 24 12 36 23 11 25 10
13 -3 -7 -10 -8 -16 -2 -16 6 0 13 4 16 9 3 5 21 11 40 13 22 2 32 0 28 -7 -4
-5 -7 -14 -7 -20 0 -5 -17 -10 -38 -9 -32 0 -37 -3 -37 -24 0 -16 -4 -21 -12
-16 -10 6 -10 5 -1 -7 10 -13 10 -16 -2 -16 -8 0 -15 4 -15 9 0 4 -4 8 -8 8
-5 0 -9 -7 -9 -15 0 -8 4 -12 9 -9 4 3 8 1 8 -5 0 -5 -5 -13 -10 -16 -8 -5 -7
-12 1 -22 10 -11 10 -19 1 -34 -7 -11 -8 -19 -2 -19 5 0 10 4 10 9 0 6 9 9 20
8 11 -1 20 -5 20 -10 0 -5 -7 -7 -14 -4 -10 4 -13 1 -10 -7 3 -7 11 -13 19
-13 8 0 12 4 9 9 -3 4 0 8 6 8 6 0 8 5 4 13 -5 8 -2 8 9 -2 11 -9 17 -10 17
-2 0 6 5 11 11 11 8 0 8 -5 -1 -15 -7 -8 -16 -12 -21 -9 -5 3 -9 0 -9 -5 0
-16 12 -13 40 9 14 11 32 20 41 20 26 0 52 48 45 83 -8 40 -23 57 -51 57 -13
0 -22 6 -22 15 0 8 8 15 17 15 9 0 22 6 29 13 10 10 11 9 6 -4 -4 -10 -1 -20
6 -25 8 -4 10 -3 5 4 -4 7 -2 12 4 12 6 0 9 4 6 8 -2 4 4 8 15 8 12 0 15 -4 9
-10 -13 -13 -13 -26 1 -26 5 0 8 4 4 9 -3 6 16 9 44 7 27 -1 47 2 44 7 -3 4
-12 6 -22 2 -12 -5 -13 -3 -5 5 9 9 20 7 45 -6 25 -13 31 -13 22 -3 -10 12 -8
15 6 15 12 0 17 -5 13 -15 -3 -9 -1 -12 6 -7 7 4 12 2 12 -3 0 -6 -6 -11 -14
-11 -8 0 -16 -5 -18 -12 -2 -6 -18 -16 -35 -22 l-30 -11 25 -25 c18 -18 23
-20 19 -7 -4 9 -2 17 3 17 6 0 10 -6 11 -12 0 -7 2 -23 5 -35 4 -24 -10 -31
-22 -11 -5 7 -3 8 7 3 12 -7 12 -6 1 7 -8 9 -20 14 -29 11 -13 -5 -13 -7 0
-14 8 -5 13 -19 12 -34 -2 -14 1 -23 5 -20 5 3 6 13 3 21 -5 14 -3 14 14 3 29
-17 51 -6 48 25 -2 14 1 26 7 26 7 0 7 4 0 13 -14 18 -11 114 4 114 7 0 10 -5
8 -12 -3 -6 6 -11 20 -11 21 0 23 3 14 19 -8 15 -7 18 4 11 21 -14 51 -15 58
-3 5 7 9 5 13 -6 4 -9 3 -13 -2 -10 -5 3 -12 2 -14 -3 -3 -4 12 -7 33 -7 21 0
36 3 33 7 -2 5 -8 6 -13 3 -5 -3 -12 0 -16 7 -4 7 -4 10 1 6 4 -4 15 -2 23 5
13 9 14 9 8 -1 -5 -8 -1 -11 16 -8 13 1 34 -4 48 -13 l25 -15 -20 24 c-14 18
-15 21 -3 11 9 -7 21 -10 26 -7 11 7 34 -17 27 -28 -3 -3 0 -2 7 3 8 8 8 15
-3 27 -12 16 -12 17 1 9 24 -15 82 -17 74 -2 -4 6 3 3 15 -7 21 -19 21 -19 15
-1 -5 11 -4 16 2 12 6 -3 16 -2 24 3 10 6 14 45 14 175 1 92 -2 169 -5 171 -6
3 -205 7 -272 5 -20 -1 -31 -7 -34 -21 -3 -11 -9 -17 -14 -14 -5 3 -9 -5 -9
-16 0 -16 -4 -20 -16 -16 -13 5 -14 4 -6 -7 9 -10 8 -18 -3 -33 -8 -10 -15
-16 -15 -12 0 5 -8 0 -18 -10 -11 -9 -18 -20 -16 -23 4 -7 -95 -58 -128 -66
-13 -3 -59 -8 -103 -10 -155 -9 -292 64 -345 184 -16 36 -24 43 -47 44 -248 5
-276 1 -268 -42 2 -10 -2 -23 -10 -29 -10 -8 -13 -8 -11 2 1 7 5 18 8 24 4 6
1 11 -7 11 -8 0 -12 -4 -9 -9 3 -4 -2 -11 -11 -14 -13 -6 -14 -8 -3 -15 18
-11 17 -32 -2 -41 -13 -6 -13 -7 1 -7 12 -1 15 -10 14 -36 -2 -19 0 -35 4 -35
4 0 7 -9 8 -20 1 -11 -2 -18 -6 -15 -5 2 -8 -6 -7 -18 1 -15 7 -21 19 -19 17
3 17 2 0 -16 -10 -10 -22 -16 -28 -13 -5 2 -4 -3 4 -12 7 -9 11 -17 8 -17 -3
0 5 -11 19 -25 14 -14 29 -23 35 -20 5 3 6 0 3 -8 -3 -8 1 -14 10 -14 8 0 13
4 11 8 -3 4 2 10 10 13 9 3 18 -1 21 -9 4 -8 10 -12 15 -9 5 3 6 10 3 16 -4 7
-2 8 5 4 6 -4 8 -12 5 -18 -4 -7 -2 -8 4 -4 7 4 12 1 12 -6 0 -9 -17 -14 -55
-15 -34 -1 -61 -7 -70 -17 -17 -17 -20 -30 -5 -21 6 3 10 1 10 -4 0 -6 -4 -11
-10 -11 -15 0 -12 -30 3 -31 8 0 8 -2 -2 -6 -11 -5 -11 -7 0 -15 11 -8 11 -9
-1 -5 -8 2 -14 9 -13 15 2 6 -7 16 -20 22 -19 9 -20 9 -6 -2 17 -14 19 -19 19
-43 0 -9 6 -12 18 -9 14 5 15 4 2 -5 -19 -14 -30 -14 -30 0 0 5 -13 24 -30 42
-16 18 -30 35 -30 39 0 4 -6 13 -13 20 -17 16 -88 138 -81 138 2 0 -1 10 -8
23 -7 12 -13 24 -14 27 0 3 -3 12 -7 20 -39 101 -52 184 -50 330 2 90 8 134
28 205 14 50 27 97 29 105 3 8 5 16 5 18 1 1 1 5 0 8 0 4 4 10 9 13 5 3 20 26
33 51 27 49 58 98 74 116 5 7 29 34 52 60 62 73 93 106 93 98 0 -4 8 3 19 14
10 12 21 19 25 15 3 -3 6 0 6 7 0 7 3 11 6 7 4 -3 15 4 26 16 11 12 17 15 13
7 -4 -10 -2 -9 8 3 8 9 19 17 26 17 6 0 11 5 11 11 0 5 5 7 11 4 6 -4 17 1 25
11 9 11 13 14 10 9 -2 -6 4 -11 14 -11 14 0 16 3 8 13 -8 11 -7 12 7 7 14 -6
16 -4 10 6 -5 9 -4 11 4 6 6 -4 17 -3 24 2 7 5 22 12 35 15 20 5 22 3 10 -11
-9 -13 -7 -12 9 2 13 10 20 23 16 29 -3 6 -1 7 6 3 6 -4 8 -13 5 -19 -4 -7 -4
-9 1 -5 4 4 15 2 24 -4 13 -10 14 -10 4 2 -17 19 -16 26 5 27 35 2 82 12 94
19 9 6 9 3 -1 -9 -8 -10 -11 -20 -7 -24 3 -3 6 -1 6 6 0 7 7 11 14 8 11 -4 13
-1 9 10 -5 13 -3 14 16 4 13 -7 19 -17 14 -24 -4 -7 0 -7 10 2 19 15 23 26 5
15 -6 -4 -8 -3 -5 4 4 5 16 8 27 5 11 -3 20 0 20 6 0 6 5 11 10 11 6 0 10 -4
10 -8z m300 -36 c0 -2 -8 -10 -17 -17 -16 -13 -17 -12 -4 4 13 16 21 21 21 13z
m-1472 -231 c-3 -3 -9 2 -12 12 -6 14 -5 15 5 6 7 -7 10 -15 7 -18z m1830 0
c-3 -3 -9 2 -12 12 -6 14 -5 15 5 6 7 -7 10 -15 7 -18z m112 -150 c0 -7 -30
-13 -34 -7 -3 4 4 9 15 9 10 1 19 0 19 -2z m-1426 -61 c-7 -3 -10 -14 -7 -24
3 -11 1 -20 -4 -20 -5 0 -9 10 -7 23 3 29 2 27 17 26 8 0 8 -2 1 -5z m1467
-21 c-11 -5 -11 -7 0 -14 8 -5 9 -9 3 -9 -6 0 -16 6 -22 13 -8 10 -6 13 11 14
12 0 16 -1 8 -4z m-1467 -48 c-4 -8 -11 -15 -16 -15 -6 0 -5 6 2 15 7 8 14 15
16 15 2 0 1 -7 -2 -15z m-667 -78 c0 -8 -6 -14 -14 -14 -9 0 -10 4 -2 14 6 7
12 13 14 13 1 0 2 -6 2 -13z m667 -13 c-7 -3 -10 -14 -7 -24 3 -11 1 -20 -4
-20 -5 0 -9 10 -7 23 3 29 2 27 17 26 8 0 8 -2 1 -5z m696 -34 c0 -5 -4 -10
-10 -10 -5 0 -10 5 -10 10 0 6 5 10 10 10 6 0 10 -4 10 -10z m84 -33 c-9 -5
-18 -6 -21 -3 -4 3 -1 6 7 6 10 0 10 3 -1 17 -13 15 -12 15 8 2 19 -11 20 -15
7 -22z m780 -39 c-17 -26 -15 -48 4 -42 14 5 15 4 2 -5 -19 -13 -46 17 -30 33
6 6 5 15 -3 25 -11 14 -10 15 7 1 18 -14 19 -13 12 5 -5 15 -4 17 5 8 6 -6 8
-17 3 -25z m-649 -6 c-3 -3 -11 0 -18 7 -9 10 -8 11 6 5 10 -3 15 -9 12 -12z
m45 -53 c0 -11 -29 -19 -34 -10 -3 5 -3 10 -1 13 8 7 35 5 35 -3z m-1658 -22
c-7 -8 -10 -17 -7 -20 3 -4 2 -5 -2 -2 -11 8 -13 36 -2 29 5 -3 9 0 9 7 0 7 3
9 6 6 4 -4 2 -13 -4 -20z m2275 -46 c0 -11 -5 -18 -9 -15 -4 3 -5 11 -1 19 7
21 12 19 10 -4z m-1565 -215 c-4 -6 -7 -14 -7 -18 0 -19 -11 -14 -11 6 0 12 6
23 13 23 6 0 9 -5 5 -11z m0 -53 c-6 -2 -9 -10 -6 -15 4 -7 2 -8 -5 -4 -13 9
-5 26 12 25 9 0 8 -2 -1 -6z m-685 -74 c-13 -8 -15 -14 -7 -30 6 -11 8 -23 5
-28 -3 -5 0 -12 5 -14 6 -3 5 -4 -1 -3 -7 1 -14 11 -15 22 -1 10 -4 28 -7 39
-4 16 0 21 16 22 20 2 20 1 4 -8z m685 -66 c-10 -4 -10 -8 0 -21 12 -15 11
-16 -4 -3 -19 14 -15 32 5 30 8 0 8 -2 -1 -6z m-654 -28 c-10 -10 -49 -14 -43
-4 4 5 10 7 15 4 5 -3 12 0 15 6 4 5 10 8 13 5 3 -3 3 -8 0 -11z m1 -42 c-9
-10 -8 -13 1 -13 8 0 10 -3 7 -6 -8 -9 -38 16 -32 25 2 4 11 8 19 8 12 0 13
-4 5 -14z m1104 -2 c18 9 20 9 10 -1 -6 -7 -9 -19 -6 -26 4 -11 -5 -14 -36
-12 -23 1 -41 5 -41 9 0 4 -3 16 -6 26 -5 16 -4 16 8 3 7 -8 20 -16 28 -18 12
-3 13 -1 3 9 -7 7 -13 17 -13 22 0 5 7 1 16 -7 12 -13 20 -14 37 -5z m-284
-19 c12 -3 12 -1 0 14 -13 16 -11 15 21 -1 24 -12 31 -14 23 -4 -9 11 -6 14
15 15 15 1 21 -1 15 -3 -7 -3 -13 -9 -13 -14 0 -5 10 -4 23 3 28 15 49 19 41
7 -3 -5 -10 -7 -15 -4 -5 4 -9 1 -9 -4 0 -9 19 -10 73 -2 5 0 5 7 1 14 -5 8
-2 8 9 -2 9 -7 17 -21 16 -30 0 -10 -3 -11 -6 -4 -3 10 -7 10 -17 0 -19 -17
-9 -35 18 -32 14 2 23 -2 23 -11 0 -10 -4 -11 -14 -2 -11 8 -12 7 -7 -6 3 -9
11 -16 18 -16 6 0 4 -4 -4 -10 -15 -10 -44 6 -35 20 6 10 -20 32 -28 23 -4 -3
-7 0 -7 8 0 8 -16 19 -35 25 -19 6 -35 7 -35 3 0 -5 -6 -6 -12 -4 -15 5 -42
-14 -50 -35 -8 -22 12 -44 42 -48 14 -2 30 -8 36 -13 6 -5 14 -6 17 -2 4 3 7
1 7 -5 0 -6 -4 -14 -10 -17 -5 -3 -10 -2 -10 4 0 5 -9 8 -20 6 -11 -2 -18 0
-15 6 4 5 1 10 -4 10 -37 5 -46 2 -47 -11 -1 -8 -2 -21 -3 -28 0 -7 -6 -10
-11 -7 -6 4 -7 11 -4 17 4 6 1 9 -7 6 -8 -3 -22 -1 -31 4 -13 6 -18 5 -18 -4
0 -9 -3 -9 -10 2 -6 9 -10 11 -10 3 0 -8 -7 -10 -17 -6 -11 4 -13 8 -5 11 7 2
10 8 6 13 -7 12 59 12 72 -1 6 -6 15 -5 24 1 13 9 12 10 -2 5 -10 -3 -18 -1
-18 3 0 13 28 21 34 10 2 -5 3 -4 2 3 -2 7 -11 12 -21 10 -9 -2 -15 1 -12 5 3
5 -10 7 -29 5 -41 -5 -68 4 -58 19 4 8 9 7 15 -2 6 -10 9 -11 9 -1 0 7 14 12
36 12 32 0 35 2 28 23 -17 54 -17 53 -2 37 7 -8 19 -16 27 -18z m156 18 c3 -5
1 -10 -4 -10 -6 0 -11 5 -11 10 0 6 2 10 4 10 3 0 8 -4 11 -10z m405 6 c0 -2
-7 -7 -16 -10 -8 -3 -12 -2 -9 4 6 10 25 14 25 6z m690 -66 c0 -5 -5 -10 -11
-10 -5 0 -7 5 -4 10 3 6 8 10 11 10 2 0 4 -4 4 -10z m-1999 -63 c-10 -9 -11
-8 -5 6 3 10 9 15 12 12 3 -3 0 -11 -7 -18z m1069 3 c-8 -5 -11 -10 -7 -10 5
0 5 -5 2 -10 -4 -6 -11 -8 -16 -4 -12 7 8 34 25 34 6 0 4 -5 -4 -10z m-1030
-130 c-12 -8 -12 -10 -1 -10 8 0 12 -3 8 -6 -9 -9 -28 6 -22 17 4 5 12 9 18 9
7 0 6 -4 -3 -10z m164 -221 c-2 -4 2 -10 8 -12 8 -4 9 -6 2 -6 -6 -1 -17 5
-23 12 -8 10 -7 14 4 14 8 0 12 -4 9 -8z m126 -99 c0 -5 -2 -10 -4 -10 -3 0
-8 5 -11 10 -3 6 -1 10 4 10 6 0 11 -4 11 -10z m-810 -120 c12 -7 10 -9 -8 -7
-12 0 -22 5 -22 9 0 11 12 10 30 -2z m2355 -40 c3 -6 -1 -7 -9 -4 -18 7 -21
14 -7 14 6 0 13 -4 16 -10z m1025 -4 c0 -3 -4 -8 -10 -11 -5 -3 -10 -1 -10 4
0 6 5 11 10 11 6 0 10 -2 10 -4z m-1035 -15 c6 -1 4 -5 -3 -10 -14 -9 -13 -31
3 -44 6 -5 1 -6 -11 -3 -14 4 -21 2 -21 -8 0 -9 4 -13 9 -10 4 3 8 1 8 -4 0
-13 -39 -18 -149 -17 -68 0 -95 4 -97 13 -1 7 0 8 3 2 6 -14 40 -13 49 2 5 7
3 8 -6 3 -9 -5 -11 -4 -6 3 4 7 14 12 22 12 8 0 13 -4 10 -9 -4 -5 3 -7 14 -4
11 3 20 10 20 15 0 5 -6 6 -12 2 -9 -5 -8 -2 1 9 11 14 17 15 28 6 11 -9 17
-9 26 1 9 10 9 11 0 6 -9 -5 -11 -2 -6 10 5 14 8 13 20 -7 9 -15 12 -17 9 -5
-5 13 -2 17 9 13 8 -4 17 -1 21 5 4 6 3 8 -4 4 -6 -3 -13 -2 -16 3 -4 5 2 8
11 6 10 -2 22 -4 28 -4 5 -1 4 -6 -3 -13 -7 -7 -12 -16 -12 -22 0 -5 6 -1 14
10 10 12 11 23 5 31 -7 8 -5 10 8 8 10 -2 23 -4 28 -4z m-1256 -18 c-4 -22 3
-33 20 -33 10 0 22 -7 25 -16 3 -8 10 -13 15 -10 5 4 11 0 14 -6 3 -10 8 -10
18 1 8 8 9 11 2 7 -6 -3 -14 -2 -18 4 -4 6 -9 9 -13 7 -4 -2 -15 4 -24 15 -23
23 -13 23 20 -1 15 -10 32 -20 37 -21 6 -1 9 -6 7 -12 -1 -5 3 -8 10 -5 7 2
11 13 10 23 -3 15 1 13 17 -8 14 -17 28 -25 39 -22 14 5 14 4 2 -4 -8 -6 -18
-8 -22 -5 -5 2 -53 5 -106 6 l-97 2 -3 29 c-3 21 0 26 10 20 11 -6 11 -5 0 8
-11 14 -10 17 5 21 29 8 33 7 32 0z m96 -31 c-3 -3 -11 0 -18 7 -9 10 -8 11 6
5 10 -3 15 -9 12 -12z m890 -52 c3 -6 -1 -7 -9 -4 -18 7 -21 14 -7 14 6 0 13
-4 16 -10z m-2009 -304 c1 -7 -4 -13 -12 -13 -9 0 -11 4 -4 12 5 7 8 15 5 18
-3 4 -2 5 2 2 4 -3 8 -11 9 -19z m2888 9 c-7 -16 -24 -21 -24 -6 0 8 7 13 27
20 1 1 0 -6 -3 -14z m-2324 1 c0 -2 -7 -7 -16 -10 -8 -3 -12 -2 -9 4 6 10 25
14 25 6z m0 -30 c0 -2 -7 -7 -16 -10 -8 -3 -12 -2 -9 4 6 10 25 14 25 6z m-1
-93 c-3 -20 2 -34 11 -28 5 3 7 0 4 -9 -5 -12 -8 -12 -24 2 -14 12 -17 19 -8
29 12 15 19 17 17 6z m2062 -30 c12 -16 12 -17 -2 -6 -9 7 -20 9 -24 5 -5 -4
-5 -1 -1 6 9 16 11 15 27 -5z m-449 -45 c-7 -7 -12 -8 -12 -2 0 14 12 26 19
19 2 -3 -1 -11 -7 -17z m-992 8 c0 -3 -4 -8 -10 -11 -5 -3 -10 -1 -10 4 0 6 5
11 10 11 6 0 10 -2 10 -4z m157 -11 c0 -8 -4 -12 -9 -9 -5 3 -6 10 -3 15 9 13
12 11 12 -6z m36 -6 c-8 -8 -13 -7 -18 2 -5 8 -4 10 3 5 7 -4 12 -2 12 5 0 7
3 9 7 6 4 -4 2 -12 -4 -18z m364 -1 c-3 -8 -6 -5 -6 6 -1 11 2 17 5 13 3 -3 4
-12 1 -19z m103 2 c0 -5 -2 -10 -4 -10 -3 0 -8 5 -11 10 -3 6 -1 10 4 10 6 0
11 -4 11 -10z"/>
<path d="M1941 3211 c-9 -6 -10 -11 -2 -15 6 -4 11 -2 11 4 0 6 5 8 12 4 7 -4
8 -3 4 4 -8 14 -7 14 -25 3z"/>
<path d="M2225 3209 c-4 -6 -4 -13 -1 -16 3 -4 6 -1 6 6 0 8 6 11 16 7 8 -3
12 -2 9 4 -8 13 -22 13 -30 -1z"/>
<path d="M1435 2890 c-3 -6 1 -7 9 -4 18 7 21 14 7 14 -6 0 -13 -4 -16 -10z"/>
<path d="M2947 2684 c-3 -4 -2 -15 4 -25 5 -11 7 -19 3 -19 -3 0 -1 -6 5 -14
8 -10 9 -16 1 -19 -6 -3 -5 -4 2 -3 17 3 17 26 1 52 -7 11 -10 24 -6 27 3 4 4
7 1 7 -2 0 -8 -3 -11 -6z"/>
<path d="M2070 2566 c0 -2 7 -7 16 -10 8 -3 12 -2 9 4 -6 10 -25 14 -25 6z"/>
<path d="M2040 2496 c-26 -7 -57 -20 -71 -29 -14 -10 -29 -15 -32 -12 -4 3 -5
3 -3 0 2 -3 -10 -21 -27 -40 -19 -22 -33 -31 -37 -24 -10 16 -17 -9 -16 -53 1
-30 -1 -34 -13 -25 -12 9 -13 9 -7 -1 4 -7 2 -20 -6 -29 -11 -14 -11 -16 1 -9
10 7 12 3 6 -13 -4 -13 -2 -21 5 -21 6 0 8 5 4 12 -5 7 -3 8 6 3 9 -5 10 -1 6
16 -6 19 -5 21 4 7 13 -21 3 -48 -19 -48 -14 0 -14 -2 -1 -10 9 -6 20 -5 30 3
12 10 13 9 5 -3 -12 -18 -13 -40 -1 -58 6 -11 11 -11 24 0 12 10 14 10 8 1 -4
-8 -2 -13 5 -13 9 0 9 -3 0 -14 -10 -12 -9 -13 7 -9 11 2 34 -3 51 -11 17 -9
33 -16 37 -15 3 0 9 -3 12 -7 4 -4 2 -4 -5 0 -6 3 -15 2 -18 -4 -4 -6 -3 -10
2 -9 4 1 10 0 13 -1 14 -5 49 -6 45 0 -2 3 4 11 14 17 14 9 18 8 18 -3 0 -7
-4 -11 -9 -8 -4 3 -8 0 -8 -6 0 -7 7 -9 16 -6 9 3 18 6 20 6 3 0 2 5 -2 11 -3
6 5 4 19 -6 19 -12 27 -13 33 -4 4 7 3 9 -4 5 -6 -3 -13 -3 -16 2 -2 4 6 9 19
10 19 1 23 -2 18 -15 -4 -11 -3 -14 5 -9 7 4 12 14 12 22 0 15 21 15 32 -1 4
-6 8 -2 8 9 0 12 5 16 15 12 8 -3 19 3 25 12 8 15 11 15 20 2 9 -13 10 -13 10
0 0 9 12 27 28 40 42 38 63 77 66 123 9 148 -174 253 -354 203z m-166 -146
c-6 -6 -10 -3 -10 10 0 13 4 16 10 10 7 -7 7 -13 0 -20z m26 -170 c-8 -5 -19
-10 -25 -10 -5 0 -3 5 5 10 8 5 20 10 25 10 6 0 3 -5 -5 -10z m160 -75 c0 -2
-10 -9 -22 -15 -22 -11 -22 -10 -4 4 21 17 26 19 26 11z"/>
<path d="M2305 2499 c-4 -6 -5 -12 -2 -15 2 -3 7 2 10 11 7 17 1 20 -8 4z"/>
<path d="M1682 2404 c-7 -8 -8 -14 -3 -14 10 0 25 19 20 25 -2 1 -10 -3 -17
-11z"/>
<path d="M2545 2407 c7 -16 45 -20 45 -5 0 6 -3 8 -6 5 -4 -3 -15 -2 -25 4
-14 7 -17 6 -14 -4z"/>
<path d="M2610 2401 c0 -6 4 -13 10 -16 6 -3 7 1 4 9 -7 18 -14 21 -14 7z"/>
<path d="M3010 2320 c0 -5 5 -10 11 -10 5 0 7 5 4 10 -3 6 -8 10 -11 10 -2 0
-4 -4 -4 -10z"/>
<path d="M3010 2220 c-9 -6 -10 -10 -3 -10 6 0 15 5 18 10 8 12 4 12 -15 0z"/>
<path d="M2415 2169 c-4 -6 -5 -12 -2 -15 2 -3 7 2 10 11 7 17 1 20 -8 4z"/>
<path d="M1966 2097 c3 -10 9 -15 12 -12 3 3 0 11 -7 18 -10 9 -11 8 -5 -6z"/>
<path d="M2095 2060 c-3 -6 1 -7 9 -4 18 7 21 14 7 14 -6 0 -13 -4 -16 -10z"/>
<path d="M1453 1901 c0 -11 4 -18 8 -15 4 2 15 -3 23 -12 9 -8 16 -11 16 -5 0
5 -6 14 -14 18 -8 4 -15 12 -15 18 0 5 -4 11 -10 13 -5 2 -9 -6 -8 -17z"/>
<path d="M2916 1912 c-3 -5 1 -9 9 -9 8 0 12 4 9 9 -3 4 -7 8 -9 8 -2 0 -6 -4
-9 -8z"/>
<path d="M2410 1880 c0 -5 5 -10 11 -10 5 0 7 5 4 10 -3 6 -8 10 -11 10 -2 0
-4 -4 -4 -10z"/>
<path d="M2530 1878 c0 -4 4 -8 9 -8 6 0 12 4 15 8 3 5 -1 9 -9 9 -8 0 -15 -4
-15 -9z"/>
<path d="M2687 1872 c2 -10 -2 -24 -11 -31 -8 -7 -12 -19 -9 -27 3 -9 0 -13
-8 -11 -8 2 -11 2 -6 0 4 -3 5 -8 2 -13 -3 -4 2 -13 10 -20 12 -10 17 -6 32
24 17 37 27 44 38 27 3 -6 -4 -15 -15 -21 -26 -14 -27 -40 -1 -33 24 6 35 -11
17 -26 -10 -8 -16 -8 -25 3 -11 13 -51 11 -51 -3 1 -31 66 -48 98 -25 11 7 21
11 24 9 2 -3 3 9 0 25 -2 17 -9 33 -14 36 -5 3 -4 12 3 20 16 20 -8 45 -45 47
-14 1 -26 7 -26 14 0 6 -4 14 -9 17 -5 4 -7 -2 -4 -12z m-3 -86 c-3 -9 -10
-13 -16 -10 -5 3 -4 12 3 20 15 18 22 13 13 -10z"/>
<path d="M2016 1868 c3 -5 10 -6 15 -3 13 9 11 12 -6 12 -8 0 -12 -4 -9 -9z"/>
<path d="M2555 1860 c-4 -6 -13 -9 -20 -6 -8 3 -14 -6 -17 -24 -2 -16 -1 -27
3 -25 4 3 9 -2 12 -9 3 -8 1 -17 -6 -20 -9 -3 -8 -5 1 -5 7 -1 10 -6 6 -13 -4
-6 -3 -8 4 -4 11 6 10 23 -3 61 -5 14 -4 16 3 6 6 -9 12 -10 16 -3 4 6 13 9
21 6 8 -4 12 -10 9 -16 -3 -5 -12 -7 -20 -4 -8 3 -14 1 -14 -4 0 -6 6 -10 13
-10 9 0 9 -2 -1 -9 -8 -4 -13 -11 -13 -15 4 -25 -1 -35 -13 -30 -22 8 -28 -12
-8 -27 15 -13 16 -12 3 4 -8 10 -9 17 -3 17 6 0 14 -4 17 -10 13 -21 32 -8 53
38 11 26 29 57 38 70 16 21 16 22 -5 22 -15 0 -20 4 -15 13 5 8 2 8 -9 -2 -13
-10 -20 -11 -31 -2 -10 9 -16 9 -21 1z"/>
<path d="M2394 1841 c-10 -9 -19 -26 -18 -38 1 -20 -1 -21 -20 -11 -18 10 -19
9 -9 -4 7 -8 9 -19 5 -23 -4 -5 1 -5 11 -2 9 4 17 2 17 -3 0 -6 -8 -10 -17
-10 -14 -1 -12 -4 7 -16 l25 -15 -25 5 c-14 3 -20 3 -13 0 7 -3 11 -11 9 -17
-1 -7 -1 -9 1 -4 3 4 9 7 14 7 6 0 7 -4 4 -10 -3 -5 -1 -11 4 -11 6 -1 17 -2
24 -3 14 -2 67 31 83 53 15 19 8 81 -10 100 -20 19 -69 21 -92 2z m30 -139 c3
-5 -1 -9 -9 -9 -8 0 -12 4 -9 9 3 4 7 8 9 8 2 0 6 -4 9 -8z"/>
<path d="M2226 1782 c-2 -4 -17 -7 -33 -6 -20 1 -33 -6 -45 -25 -10 -14 -18
-30 -18 -36 1 -5 6 -1 13 10 8 14 22 20 41 20 17 -1 36 7 45 16 8 10 19 15 24
12 6 -3 7 -1 3 5 -8 14 -23 16 -30 4z"/>
<path d="M1844 1752 c-6 -4 -11 -15 -11 -25 0 -21 20 -6 23 18 3 17 3 17 -12
7z"/>
<path d="M2718 1753 c7 -3 16 -2 19 1 4 3 -2 6 -13 5 -11 0 -14 -3 -6 -6z"/>
<path d="M1670 1701 c0 -5 7 -15 17 -22 15 -13 15 -12 4 9 -12 23 -21 28 -21
13z"/>
<path d="M2626 1701 c-4 -5 3 -7 14 -4 23 6 26 13 6 13 -8 0 -17 -4 -20 -9z"/>
<path d="M1510 1692 c0 -6 9 -12 20 -15 11 -3 20 -3 20 -1 0 2 -9 8 -20 14
-11 6 -20 7 -20 2z"/>
<path d="M1700 1696 c0 -2 8 -10 18 -17 15 -13 16 -12 3 4 -13 16 -21 21 -21
13z"/>
<path d="M1830 1696 c0 -2 8 -10 18 -17 15 -13 16 -12 3 4 -13 16 -21 21 -21
13z"/>
<path d="M2670 1691 c0 -7 -5 -9 -12 -5 -7 5 -8 3 -3 -5 5 -9 10 -10 18 -2 6
6 8 14 4 18 -4 3 -7 1 -7 -6z"/>
<path d="M2694 1692 c4 -3 14 -7 22 -8 9 -1 13 0 10 4 -4 3 -14 7 -22 8 -9 1
-13 0 -10 -4z"/>
<path d="M980 3050 c0 -5 -7 -7 -15 -4 -8 4 -15 2 -15 -4 0 -13 27 -9 42 6 9
9 9 12 0 12 -7 0 -12 -4 -12 -10z"/>
<path d="M738 2353 c6 -2 12 -9 12 -14 0 -6 -4 -8 -9 -4 -5 3 -12 1 -15 -4
-10 -16 11 -22 24 -6 13 16 6 35 -13 34 -9 0 -9 -2 1 -6z"/>
<path d="M715 2280 c-3 -5 -1 -10 4 -10 6 0 11 5 11 10 0 6 -2 10 -4 10 -3 0
-8 -4 -11 -10z"/>
<path d="M730 2251 c0 -5 7 -12 16 -15 14 -5 15 -4 4 9 -14 17 -20 19 -20 6z"/>
<path d="M729 2143 c-7 -10 -9 -15 -5 -11 5 4 15 3 22 -3 7 -6 14 -6 18 -1 3
6 0 15 -8 21 -10 9 -17 7 -27 -6z"/>
<path d="M817 1781 c-4 -17 -3 -21 5 -13 5 5 8 16 6 23 -3 8 -7 3 -11 -10z"/>
<path d="M851 1723 c-1 -18 13 -23 29 -11 12 8 12 9 -2 5 -9 -3 -19 -1 -22 6
-3 9 -5 9 -5 0z"/>
<path d="M875 1689 c-4 -6 -5 -12 -2 -15 2 -3 7 2 10 11 7 17 1 20 -8 4z"/>
<path d="M916 1597 c3 -10 9 -15 12 -12 3 3 0 11 -7 18 -10 9 -11 8 -5 -6z"/>
<path d="M947 1593 c-10 -9 -9 -23 1 -23 5 0 9 7 9 15 0 17 -1 18 -10 8z"/>
<path d="M1046 1435 c-11 -8 -17 -17 -14 -20 2 -3 13 4 23 15 21 23 18 25 -9
5z"/>
<path d="M374 1136 c1 -8 6 -19 11 -23 4 -4 5 -2 1 5 -4 7 -1 12 8 12 9 0 16
-6 16 -12 0 -9 4 -8 11 2 9 12 10 11 6 -6 -2 -11 1 -21 7 -21 11 0 17 36 6 38
-15 2 -37 8 -52 14 -11 5 -16 2 -14 -9z"/>
<path d="M560 1038 c-12 -8 -12 -9 2 -4 10 3 22 -2 27 -12 6 -9 11 -12 11 -6
0 20 -24 34 -40 22z"/>
<path d="M614 1009 c1 -7 10 -13 19 -15 9 -1 15 2 11 7 -3 5 -9 7 -14 4 -4 -3
-11 0 -13 5 -3 6 -4 5 -3 -1z"/>
<path d="M350 736 c0 -8 7 -17 16 -20 13 -5 14 -4 6 7 -7 8 -9 17 -5 20 3 4 1
7 -5 7 -7 0 -12 -6 -12 -14z"/>
<path d="M3470 738 c0 -4 4 -8 9 -8 6 0 12 4 15 8 3 5 -1 9 -9 9 -8 0 -15 -4
-15 -9z"/>
<path d="M3648 732 c4 -10 7 -12 10 -4 2 7 9 9 15 5 7 -3 8 -2 4 2 -14 16 -36
14 -29 -3z"/>
<path d="M3716 733 c-6 -14 -5 -15 5 -6 7 7 10 15 7 18 -3 3 -9 -2 -12 -12z"/>
<path d="M506 715 c-9 -26 -7 -32 5 -12 6 10 9 21 6 23 -2 3 -7 -2 -11 -11z"/>
<path d="M981 704 c0 -11 3 -14 6 -6 3 7 2 16 -1 19 -3 4 -6 -2 -5 -13z"/>
<path d="M845 700 c3 -5 8 -10 11 -10 2 0 4 5 4 10 0 6 -5 10 -11 10 -5 0 -7
-4 -4 -10z"/>
<path d="M1140 566 c0 -4 7 -14 15 -22 8 -9 15 -11 15 -6 0 5 -7 15 -15 22 -8
7 -15 9 -15 6z"/>
<path d="M1239 543 c-13 -16 -12 -17 4 -4 16 13 21 21 13 21 -2 0 -10 -8 -17
-17z"/>
<path d="M1565 549 c-4 -6 -5 -12 -2 -15 2 -3 7 2 10 11 7 17 1 20 -8 4z"/>
<path d="M2754 541 c4 -5 1 -12 -4 -14 -6 -3 -5 -4 2 -3 15 3 23 26 8 26 -6 0
-9 -4 -6 -9z"/>
<path d="M2145 520 c8 -9 12 -20 8 -25 -5 -4 -2 -5 5 -1 9 6 10 11 3 20 -6 7
-9 15 -6 18 3 2 -2 5 -10 5 -13 0 -13 -2 0 -17z"/>
<path d="M1376 522 c-3 -5 1 -9 9 -9 8 0 12 4 9 9 -3 4 -7 8 -9 8 -2 0 -6 -4
-9 -8z"/>
</g>
</svg>
