<svg id="line" height="512" viewBox="0 0 64 64" width="512" xmlns="http://www.w3.org/2000/svg"><g fill="#c4a2fc"><path d="m43.31 21.806c-1.474.138-2.21.922-2.21 1.934 0 .967.436 1.566 2.21 2.142z"/><path d="m55 13.586v7.414h7.414z"/><path d="m47.408 31.269c0-1.012-.508-1.635-2.279-2.187v4.19c1.471-.161 2.279-.898 2.279-2.003z"/><path d="m54 23a1 1 0 0 1 -1-1v-9h-25a3 3 0 0 0 -3 3v44a3 3 0 0 0 3 3h32a3 3 0 0 0 3-3v-37zm-14.858 8.385a1.253 1.253 0 0 1 .76.253 8.169 8.169 0 0 0 3.408 1.543v-4.537c-3.363-.874-4.929-2.141-4.929-4.743 0-2.463 1.958-4.167 4.835-4.4v-.481a1 1 0 0 1 1.015-.99.983.983 0 0 1 .99.99v.506a8.379 8.379 0 0 1 3.567 1.267 1.231 1.231 0 0 1 .692 1.107 1.277 1.277 0 0 1 -1.98 1.059 8.423 8.423 0 0 0 -2.371-1.013v4.421c3.5.875 5 2.279 5 4.743 0 2.533-1.98 4.214-4.9 4.49v1.38a.983.983 0 0 1 -.99.99 1 1 0 0 1 -1.015-.99v-1.428a9.959 9.959 0 0 1 -4.719-1.8 1.266 1.266 0 0 1 -.622-1.1 1.249 1.249 0 0 1 1.259-1.267zm18.858 26.615h-28a1 1 0 0 1 0-2h28a1 1 0 0 1 0 2zm0-5h-28a1 1 0 0 1 0-2h28a1 1 0 0 1 0 2zm0-5h-28a1 1 0 0 1 0-2h28a1 1 0 0 1 0 2zm0-5h-28a1 1 0 0 1 0-2h28a1 1 0 0 1 0 2z"/></g><path d="m39.208 35.559-12.208-5.373v-2.556a14 14 0 1 0 -12 0v2.556l-12.209 5.373a3 3 0 0 0 -1.791 2.746v6.695a3 3 0 0 0 3 3h34a3 3 0 0 0 3-3v-6.695a3 3 0 0 0 -1.792-2.746zm-18.208-32.559a12.006 12.006 0 0 1 11.98 11.6 12.054 12.054 0 0 1 -7.595-6.011 1.042 1.042 0 0 0 -1.77 0 11.978 11.978 0 0 1 -10.615 6.411 11.9 11.9 0 0 1 -3.965-.688 12 12 0 0 1 11.965-11.312zm-11.9 13.438a13.96 13.96 0 0 0 15.4-5.463 14.067 14.067 0 0 0 8.375 5.651 11.988 11.988 0 0 1 -23.775-.188zm7.9 29.562h-13a1 1 0 0 1 -1-1v-6.695a1 1 0 0 1 .6-.916l12.243-5.389h1.157zm6 0h-4v-14h4zm-6-16v-1.59a13.854 13.854 0 0 0 8 0v1.59zm22 15a1 1 0 0 1 -1 1h-13v-14h1.157l12.243 5.389a1 1 0 0 1 .6.916z" fill="#151a6a"/></svg>