<svg id="color" enable-background="new 0 0 24 24" height="512" viewBox="0 0 24 24" width="512" xmlns="http://www.w3.org/2000/svg"><path d="m15.25 19h-3.25c-.414 0-.75-.336-.75-.75s.336-.75.75-.75h3.25c.414 0 .75.336.75.75s-.336.75-.75.75z" fill="#607d8b"/><g fill="#03a9f4"><circle cx="20" cy="17" r="2"/><path d="m21.25 20h-2.5c-1.517 0-2.75 1.233-2.75 2.75v.5c0 .414.336.75.75.75h6.5c.414 0 .75-.336.75-.75v-.5c0-1.517-1.233-2.75-2.75-2.75z"/><path d="m4 19c1.103 0 2-.897 2-2s-.897-2-2-2-2 .897-2 2 .897 2 2 2z"/><path d="m5.25 20h-2.5c-1.517 0-2.75 1.233-2.75 2.75v.5c0 .414.336.75.75.75h6.5c.414 0 .75-.336.75-.75v-.5c0-1.517-1.233-2.75-2.75-2.75z"/></g><path d="m4 15c-1.103 0-2 .897-2 2s.897 2 2 2z" fill="#0393d4"/><path d="m4 20h-1.25c-1.517 0-2.75 1.233-2.75 2.75v.5c0 .414.336.75.75.75h3.25z" fill="#0393d4"/><path d="m20 15c-1.103 0-2 .897-2 2s.897 2 2 2z" fill="#0393d4"/><path d="m20 20h-1.25c-1.517 0-2.75 1.233-2.75 2.75v.5c0 .414.336.75.75.75h3.25z" fill="#0393d4"/><path d="m12 12c-3.309 0-6-2.691-6-6s2.691-6 6-6 6 2.691 6 6-2.691 6-6 6z" fill="#ffc107"/><path d="m12 10c-.414 0-.75-.336-.75-.75v-.75c0-.414.336-.75.75-.75s.75.336.75.75v.75c0 .414-.336.75-.75.75z" fill="#fafafa"/><path d="m12 4.25c-.414 0-.75-.336-.75-.75v-.75c0-.414.336-.75.75-.75s.75.336.75.75v.75c0 .414-.336.75-.75.75z" fill="#fafafa"/><path d="m12.125 9h-1.375c-.414 0-.75-.336-.75-.75s.336-.75.75-.75h1.375c.207 0 .375-.168.375-.375s-.168-.375-.375-.375h-.25c-1.034 0-1.875-.841-1.875-1.875s.841-1.875 1.875-1.875h1.375c.414 0 .75.336.75.75s-.336.75-.75.75h-1.375c-.207 0-.375.168-.375.375s.168.375.375.375h.25c1.034 0 1.875.841 1.875 1.875s-.841 1.875-1.875 1.875z" fill="#fafafa"/><path d="m12 4.5h-.125c-.207 0-.375.168-.375.375s.168.375.375.375h.125zm0-4.5c-3.309 0-6 2.691-6 6s2.691 6 6 6v-2c-.414 0-.75-.336-.75-.75v-.25h-.5c-.414 0-.75-.336-.75-.75s.336-.75.75-.75h1.25v-.75h-.125c-1.034 0-1.875-.841-1.875-1.875 0-.815.522-1.51 1.25-1.768v-.357c0-.414.336-.75.75-.75z" fill="#dea806"/><path d="m12 9h-.75v.25c0 .414.336.75.75.75z" fill="#dadada"/><path d="m12 2c-.414 0-.75.336-.75.75v.357c.196-.069.406-.107.625-.107h.125z" fill="#dadada"/><path d="m12 7.5h-1.25c-.414 0-.75.336-.75.75s.336.75.75.75h.5.75zm0-4.5h-.125c-.219 0-.429.038-.625.107-.728.258-1.25.953-1.25 1.768 0 1.034.841 1.875 1.875 1.875h.125v-1.5h-.125c-.207 0-.375-.168-.375-.375s.168-.375.375-.375h.125z" fill="#dadada"/><path d="m12 19h-3.25c-.414 0-.75-.336-.75-.75s.336-.75.75-.75h2.5v-6c0-.414.336-.75.75-.75s.75.336.75.75v6.75c0 .414-.336.75-.75.75z" fill="#607d8b"/><path d="m12 10.75c-.414 0-.75.336-.75.75v6h-2.5c-.414 0-.75.336-.75.75s.336.75.75.75h3.25z" fill="#546d79"/></svg>