<svg height="512" viewBox="0 0 64 64" width="512" xmlns="http://www.w3.org/2000/svg"><g id="Layer_20" data-name="Layer 20"><path d="m2 6h56v48h-56z" fill="#ebf7fe"/><path d="m2 6h56v12h-56z" fill="#4472b0"/><path d="m16 38h46v24h-46z" fill="#78b75b"/><path d="m54 58a4 4 0 0 1 4-4v-8a4 4 0 0 1 -4-4h-30a4 4 0 0 1 -4 4v8a4 4 0 0 1 4 4z" fill="#ebf7fe"/><circle cx="39" cy="50" fill="#78b75b" r="8"/><g fill="#c1c8d1"><rect height="8" rx="2" width="4" x="8" y="2"/><rect height="8" rx="2" width="4" x="18" y="2"/><rect height="8" rx="2" width="4" x="28" y="2"/><rect height="8" rx="2" width="4" x="38" y="2"/><rect height="8" rx="2" width="4" x="48" y="2"/></g><path d="m39 42a8.26 8.26 0 0 0 -1 .07v3.11a3 3 0 0 0 1 5.82 1 1 0 0 1 0 2h-3v2h2v2.93a7.18 7.18 0 0 0 2 0v-3.11a3 3 0 0 0 -1-5.82 1 1 0 0 1 0-2h3v-2h-2v-2.93a8.26 8.26 0 0 0 -1-.07z" fill="#fff"/><path d="m44 34v-6h-3l5-6 5 6h-3v6z" fill="#4472b0"/><path d="m30 34v-6h-3l5-6 5 6h-3v6z" fill="#4472b0"/></g></svg>