<svg height="512" viewBox="0 0 64 64" width="512" xmlns="http://www.w3.org/2000/svg"><path d="m45 29h-36v-4a4 4 0 0 1 4-4h44v-8a2.006 2.006 0 0 0 -2-2h-29a2.006 2.006 0 0 1 -2-2v-4a2.006 2.006 0 0 0 -2-2h-17a2.006 2.006 0 0 0 -2 2v54a2.006 2.006 0 0 0 2 2h8a4 4 0 0 1 -4-4v-4h52v-8h-52v-8h52v-8z" fill="#9bc9ff"/><g fill="#57a4ff"><path d="m58 20.1v-7.1a3 3 0 0 0 -3-3h-29a1 1 0 0 1 -1-1v-4a3 3 0 0 0 -3-3h-17a3 3 0 0 0 -3 3v54a3 3 0 0 0 3 3h52a5.006 5.006 0 0 0 5-5v-32a5.009 5.009 0 0 0 -4-4.9zm2 4.9v3h-50v-3a3 3 0 0 1 3-3h7v2h2v-2h12v2h2v-2h13v2h2v-2h6a3 3 0 0 1 3 3zm-50 5h10v6h-10zm20 8h6v6h-6zm-2 6h-6v-6h6zm8 2v6h-6v-6zm2 0h6v6h-6zm0-2v-6h6v6zm8-6h6v6h-6zm0-2v-6h6v6zm-2 0h-6v-6h6zm-8 0h-6v-6h6zm-8 0h-6v-6h6zm-18 2h10v6h-10zm0 8h10v6h-10zm12 0h6v6h-6zm6 8v6h-6v-6zm2 0h6v6h-6zm8 0h6v6h-6zm8 0h6v6h-6zm0-2v-6h6v6zm8-6h6v6h-6zm0-2v-6h6v6zm0-8v-6h6v6zm-50 23v-54a1 1 0 0 1 1-1h17a1 1 0 0 1 1 1v4a3 3 0 0 0 3 3h29a1 1 0 0 1 1 1v7h-5v-2h-2v2h-13v-2h-2v2h-12v-2h-2v2h-7a5.006 5.006 0 0 0 -5 5v32a4.948 4.948 0 0 0 1.026 3h-4.026a1 1 0 0 1 -1-1zm6-2v-3h10v6h-7a3 3 0 0 1 -3-3zm47 3h-3v-6h6v3a3 3 0 0 1 -3 3z"/><path d="m12 32h6v2h-6z"/><path d="m12 40h6v2h-6z"/><path d="m12 48h6v2h-6z"/><path d="m12 56h6v2h-6z"/></g></svg>