<svg height="512pt" viewBox="-16 0 512 512" width="512pt" xmlns="http://www.w3.org/2000/svg"><path d="m480 0v450h-360v-330l120-120zm0 0" fill="#ececf1"/><path d="m300 0h180v450h-180zm0 0" fill="#d3d3d8"/><path d="m390 195c0 19.5-12.597656 36-30 42.300781v32.699219h-30v-32.699219c-17.402344-6.300781-30-22.800781-30-42.300781h30c0 8.402344 6.597656 15 15 15s15-6.597656 15-15-6.597656-15-15-15c-24.902344 0-45-20.097656-45-45 0-19.5 12.597656-36 30-42.300781v-32.699219h30v32.699219c17.402344 6.300781 30 22.800781 30 42.300781h-30c0-8.402344-6.597656-15-15-15s-15 6.597656-15 15 6.597656 15 15 15c24.902344 0 45 20.097656 45 45zm0 0" fill="#3e5959"/><g fill="#d3d3d8"><path d="m240 0h-21.210938l-98.789062 98.789062v21.210938h120zm0 0"/><path d="m240 300h180v30h-180zm0 0"/><path d="m240 360h180v30h-180zm0 0"/></g><path d="m300 300h120v30h-120zm0 0" fill="#babac0"/><path d="m300 360h120v30h-120zm0 0" fill="#babac0"/><path d="m120 180c-49.5 0-90 40.5-90 90s40.5 90 90 90 90-40.5 90-90-40.5-90-90-90zm0 0" fill="#ff637b"/><path d="m120 360c-66.300781 0-120 53.699219-120 120v32h240v-32c0-66.300781-53.699219-120-120-120zm0 0" fill="#ff637b"/><path d="m120 360v-180c49.5 0 90 40.5 90 90s-40.5 90-90 90zm0 0" fill="#e63950"/><path d="m240 480v32h-120v-152c66.300781 0 120 53.699219 120 120zm0 0" fill="#e63950"/></svg>